<svg xmlns="http://www.w3.org/2000/svg" width="512" height="512" style="shape-rendering:geometricPrecision;text-rendering:geometricPrecision;image-rendering:optimizeQuality;fill-rule:evenodd;clip-rule:evenodd"><path fill="#fff" d="M147.5-.5h216q39.657 9.405 50.5 49a10850 10850 0 0 1 1.5 207q.237 103.553-1.5 207-10.843 39.597-50.5 49h-216q-39.657-9.403-50.5-49a10842 10842 0 0 1-1.5-207q-.239-103.553 1.5-207 10.843-39.595 50.5-49m11 30q100.542-.714 201 1.5 23.851 7.428 25 32.5h-258q2.198-30.193 32-34m-32 65h258q.25 45.502-.5 91L360.5 162q-8.5-5-17 0A11585 11585 0 0 0 215 289.5L168.5 243q-9.5-5-19 0L127 265.5q-.75-85.498-.5-171m77 64q22.267.013 19.5 22-9.366 17.118-26.5 7.5-13.829-18.933 7-29.5m148 39a1468 1468 0 0 1 32.5 32q.75 53.498.5 107-85.501.25-171-.5a27047 27047 0 0 0 138-138.5m-193 80a1561 1561 0 0 1 33.5 33q1 1 0 2L168.5 336q-20.994.75-42 .5-.25-13.509.5-27a1423 1423 0 0 0 31.5-32m-32 90h258q.25 43.503-.5 87-6.398 24.328-31.5 26.5-97 1-194 0-25.103-2.172-31.5-26.5a3783 3783 0 0 1-.5-87" style="opacity:1"/><path fill="#fff" d="M203.5 127.5q40.818-.411 50.5 39 4.259 44.275-38.5 55.5-38.649 4.063-53.5-31.5-9.31-37.086 22.5-57.5 9.354-3.957 19-5.5m0 31q-20.829 10.567-7 29.5 17.134 9.618 26.5-7.5 2.767-21.987-19.5-22M171.5 400.5q12.203-.398 20 9a96 96 0 0 1 9-7.5q24.049-4.952 21.5 19.5a178.6 178.6 0 0 1-21.5 23.5q-8.279 4.253-17 1a282 282 0 0 1-20.5-19.5q-9.359-17.673 8.5-26" style="opacity:1"/></svg>